<svg width="33" height="23" viewBox="0 0 33 23" fill="none" xmlns="http://www.w3.org/2000/svg">
<path d="M22.7591 11.5646C25.5443 11.5646 27.7903 9.13882 27.7903 6.12906C27.7903 3.18668 25.533 0.805817 22.7591 0.805817C19.9964 0.805817 17.7278 3.19791 17.7391 6.14029C17.7503 9.13882 19.9739 11.5646 22.7591 11.5646ZM9.61945 11.7218C12.0452 11.7218 14.0106 9.58804 14.0106 6.93765C14.0106 4.36588 12.034 2.25455 9.61945 2.25455C7.2049 2.25455 5.2171 4.38834 5.2171 6.94888C5.22833 9.59927 7.18243 11.7218 9.61945 11.7218ZM22.7591 9.18375C21.3553 9.18375 20.1761 7.86978 20.1761 6.12906C20.1649 4.47818 21.3665 3.17545 22.7591 3.17545C24.1741 3.17545 25.3421 4.46695 25.3421 6.12906C25.3421 7.84732 24.1741 9.18375 22.7591 9.18375ZM9.61945 9.38589C8.50763 9.38589 7.56427 8.319 7.56427 6.94888C7.55304 5.65738 8.50763 4.59048 9.61945 4.59048C10.7313 4.59048 11.6746 5.63492 11.6746 6.93765C11.6746 8.319 10.7425 9.38589 9.61945 9.38589ZM3.54376 22.0988H12.1126C11.3826 21.6496 10.9671 20.6164 11.0569 19.7628H3.70099C3.51007 19.7628 3.44269 19.6618 3.44269 19.5158C3.44269 17.2809 6.21661 15.0461 9.60822 15.0461C10.619 15.0461 11.8543 15.3156 12.6517 15.7086C13.056 15.0124 13.6175 14.4171 14.4036 13.9342C13.0223 13.1706 11.1917 12.7213 9.60822 12.7213C4.80157 12.7213 0.904602 16.0905 0.904602 19.819C0.904602 21.3014 1.78058 22.0988 3.54376 22.0988ZM15.8524 22.0876H29.6658C31.721 22.0876 32.743 21.3913 32.743 19.9313C32.743 16.6295 28.6663 12.7326 22.7591 12.7326C16.8406 12.7326 12.7752 16.6295 12.7752 19.9313C12.7752 21.3913 13.7972 22.0876 15.8524 22.0876ZM15.7625 19.7179C15.5491 19.7179 15.4818 19.6281 15.4818 19.4596C15.4818 17.9547 18.1321 15.1022 22.7591 15.1022C27.386 15.1022 30.0364 17.9547 30.0364 19.4596C30.0364 19.6281 29.9691 19.7179 29.7444 19.7179H15.7625Z" fill="#051A15"/>
</svg>
