<svg width="107" height="30" viewBox="0 0 107 30" fill="none" xmlns="http://www.w3.org/2000/svg">
<g clip-path="url(#clip0_907_27)">
<path d="M28.7643 22.623L33.0692 8.53413H37.0415L41.3465 22.623H38.607L34.7716 10.1974H35.2804L31.5038 22.623H28.7643ZM31.3472 19.6879V17.2027H38.7831V19.6879H31.3472ZM42.513 22.623V8.53413H45.1743V20.1379H51.2404V22.623H42.513ZM52.3169 22.623V8.53413H54.9781V22.623H52.3169ZM57.3243 22.623V8.53413H59.9855V20.1379H66.0516V22.623H57.3243ZM72.5968 22.9166C71.1879 22.9166 69.9714 22.61 68.9474 21.9969C67.9298 21.3837 67.1438 20.526 66.5894 19.4237C66.0415 18.3214 65.7676 17.0397 65.7676 15.5786C65.7676 14.1175 66.0415 12.8358 66.5894 11.7335C67.1438 10.6312 67.9298 9.77343 68.9474 9.1603C69.9714 8.54717 71.1879 8.24061 72.5968 8.24061C74.0057 8.24061 75.2189 8.54717 76.2364 9.1603C77.2605 9.77343 78.0464 10.6312 78.5943 11.7335C79.1488 12.8358 79.426 14.1175 79.426 15.5786C79.426 17.0397 79.1488 18.3214 78.5943 19.4237C78.0464 20.526 77.2605 21.3837 76.2364 21.9969C75.2189 22.61 74.0057 22.9166 72.5968 22.9166ZM72.5968 20.4119C73.4904 20.4249 74.234 20.2325 74.8275 19.8346C75.4211 19.4367 75.8646 18.8725 76.1581 18.142C76.4582 17.4115 76.6082 16.557 76.6082 15.5786C76.6082 14.6002 76.4582 13.7522 76.1581 13.0348C75.8646 12.3173 75.4211 11.7596 74.8275 11.3617C74.234 10.9638 73.4904 10.7583 72.5968 10.7453C71.7032 10.7323 70.9596 10.9247 70.366 11.3226C69.7725 11.7204 69.3257 12.2846 69.0256 13.0152C68.7321 13.7457 68.5853 14.6002 68.5853 15.5786C68.5853 16.557 68.7321 17.4049 69.0256 18.1224C69.3257 18.8399 69.7725 19.3976 70.366 19.7955C70.9596 20.1934 71.7032 20.3988 72.5968 20.4119ZM86.6429 22.9166C85.234 22.9166 84.0175 22.61 82.9935 21.9969C81.9759 21.3837 81.19 20.526 80.6355 19.4237C80.0876 18.3214 79.8137 17.0397 79.8137 15.5786C79.8137 14.1175 80.0876 12.8358 80.6355 11.7335C81.19 10.6312 81.9759 9.77343 82.9935 9.1603C84.0175 8.54717 85.234 8.24061 86.6429 8.24061C88.2605 8.24061 89.6172 8.64175 90.713 9.44404C91.8153 10.2463 92.5915 11.3323 93.0416 12.7021L90.3608 13.4457C90.0999 12.5912 89.6596 11.9292 89.04 11.4595C88.4203 10.9834 87.6213 10.7453 86.6429 10.7453C85.7493 10.7453 85.0024 10.9442 84.4024 11.3421C83.8088 11.74 83.362 12.301 83.062 13.025C82.7619 13.749 82.6119 14.6002 82.6119 15.5786C82.6119 16.557 82.7619 17.4082 83.062 18.1322C83.362 18.8562 83.8088 19.4172 84.4024 19.815C85.0024 20.2129 85.7493 20.4119 86.6429 20.4119C87.6213 20.4119 88.4203 20.1738 89.04 19.6976C89.6596 19.2215 90.0999 18.5594 90.3608 17.7115L93.0416 18.4551C92.5915 19.8248 91.8153 20.9109 90.713 21.7131C89.6172 22.5154 88.2605 22.9166 86.6429 22.9166ZM94.4132 22.623V8.53413H97.0744V15.0307L102.436 8.53413H105.684L99.7944 15.4807L106.056 22.623H102.69L97.0744 16.2048V22.623H94.4132Z" fill="#2E665A"/>
<path d="M22.0177 15.419C22.8208 15.419 23.4827 14.7645 23.3655 13.97C23.1517 12.5215 22.6192 11.132 21.799 9.90461C20.7084 8.27236 19.1582 7.00017 17.3446 6.24893C15.5309 5.49769 13.5352 5.30113 11.6099 5.68411C9.68448 6.06709 7.91591 7.01241 6.5278 8.40053C5.13968 9.78864 4.19436 11.5572 3.81138 13.4826C3.4284 15.408 3.62496 17.4037 4.37621 19.2173C5.12745 21.031 6.39963 22.5811 8.03189 23.6718C9.25926 24.4919 10.6488 25.0245 12.0973 25.2382C12.8918 25.3554 13.5462 24.6935 13.5462 23.8904C13.5462 23.0873 12.8884 22.4514 12.1025 22.2861C11.2301 22.1027 10.3962 21.7538 9.64764 21.2536C8.49366 20.4826 7.59423 19.3866 7.06311 18.1044C6.53199 16.8221 6.39302 15.4112 6.66379 14.05C6.93455 12.6887 7.60288 11.4384 8.58427 10.457C9.56565 9.47561 10.816 8.80728 12.1772 8.53651C13.5385 8.26575 14.9494 8.40472 16.2316 8.93584C17.5139 9.46696 18.6098 10.3664 19.3809 11.5204C19.8811 12.2689 20.23 13.1028 20.4134 13.9752C20.5786 14.7611 21.2146 15.419 22.0177 15.419Z" fill="#2E665A"/>
<rect x="16.7169" y="18.5896" width="5.37635" height="5.51421" rx="1.90095" stroke="#2E665A" stroke-width="2.7571" stroke-linecap="round"/>
</g>
<defs>
<clipPath id="clip0_907_27">
<rect width="103.251" height="29.964" fill="white" transform="translate(3.49579)"/>
</clipPath>
</defs>
</svg>
