<svg width="24" height="23" viewBox="0 0 24 23" fill="none" xmlns="http://www.w3.org/2000/svg">
<path d="M11.1199 22.8752H13.2117C14.1653 22.8752 14.9344 22.2702 15.1395 21.3576L15.5189 19.7272L15.6932 19.6657L17.1185 20.5475C17.9183 21.0397 18.8821 20.9064 19.5486 20.2296L20.9944 18.7941C21.6712 18.0968 21.784 17.1432 21.2918 16.3639L20.4202 14.9489L20.4715 14.7848L22.0916 14.4054C22.994 14.1798 23.5887 13.4211 23.5887 12.4777V10.4679C23.5887 9.52457 23.0042 8.75552 22.0916 8.52994L20.492 8.14029L20.4202 7.97623L21.3021 6.56119C21.8045 5.78189 21.6815 4.82828 20.9944 4.12076L19.5486 2.68521C18.8924 2.00845 17.9285 1.87515 17.1287 2.36734L15.7034 3.23892L15.5189 3.1774L15.1395 1.54703C14.9344 0.63443 14.1653 0.0294495 13.2117 0.0294495H11.1199C10.1663 0.0294495 9.40753 0.644684 9.1922 1.54703L8.81281 3.1774L8.62823 3.23892L7.20294 2.36734C6.40314 1.88541 5.43927 2.00845 4.78302 2.68521L3.33722 4.12076C2.66046 4.82828 2.53741 5.78189 3.0296 6.56119L3.91144 7.97623L3.84991 8.14029L2.24005 8.52994C1.32745 8.75552 0.742981 9.52457 0.742981 10.4679V12.4777C0.742981 13.4211 1.33771 14.1798 2.24005 14.4054L3.86017 14.7848L3.92169 14.9489L3.03986 16.3639C2.53741 17.1432 2.66046 18.0968 3.33722 18.7941L4.78302 20.2296C5.44952 20.9064 6.41339 21.0397 7.2132 20.5475L8.63849 19.6657L8.81281 19.7272L9.1922 21.3576C9.40753 22.2702 10.1663 22.8752 11.1199 22.8752ZM11.5301 20.5578C11.366 20.5578 11.284 20.4757 11.2635 20.3322L10.6688 17.8302C9.9715 17.6969 9.28448 17.4098 8.6795 17.0099L6.49542 18.3634C6.37238 18.4455 6.24933 18.4352 6.13654 18.3224L5.2547 17.4406C5.13165 17.3278 5.14191 17.2047 5.21368 17.0817L6.5672 14.8976C6.20831 14.3029 5.9212 13.6364 5.77765 12.9391L3.2757 12.3546C3.13214 12.3239 3.05011 12.2521 3.05011 12.0778V10.8576C3.05011 10.673 3.13214 10.6012 3.2757 10.5705L5.77765 9.98599C5.93146 9.27847 6.21857 8.58121 6.55695 8.01724L5.21368 5.83316C5.13165 5.71011 5.1214 5.58707 5.23419 5.47427L6.12628 4.60269C6.24933 4.4899 6.35187 4.47964 6.49542 4.56168L8.66925 5.89468C9.17169 5.5563 9.94073 5.23843 10.6688 5.07437L11.2635 2.57242C11.284 2.42886 11.366 2.34683 11.5301 2.34683H12.8016C12.9759 2.34683 13.0477 2.42886 13.0784 2.57242L13.6732 5.08463C14.4012 5.23843 15.0677 5.5358 15.6522 5.89468L17.826 4.57193C17.9695 4.4899 18.0721 4.50015 18.1951 4.61295L19.0872 5.48453C19.2 5.60757 19.1898 5.72037 19.1077 5.85367L17.7747 8.01724C18.1131 8.58121 18.4105 9.27847 18.554 9.97574L21.056 10.5705C21.2098 10.6012 21.2816 10.673 21.2816 10.8576V12.0778C21.2816 12.2521 21.1995 12.3239 21.056 12.3546L18.554 12.9494C18.4105 13.6261 18.1234 14.3234 17.7645 14.8976L19.1077 17.0714C19.1795 17.1945 19.1898 17.3175 19.0667 17.4303L18.1849 18.3122C18.0618 18.425 17.949 18.4352 17.826 18.3532L15.6522 17.0099C15.0369 17.4098 14.4319 17.6764 13.6732 17.8302L13.0784 20.3322C13.0477 20.4757 12.9759 20.5578 12.8016 20.5578H11.5301ZM12.1658 15.318C14.2884 15.318 16.0213 13.5851 16.0213 11.4523C16.0213 9.34 14.2884 7.60709 12.1658 7.60709C10.0433 7.60709 8.30011 9.34 8.30011 11.4523C8.30011 13.5851 10.0433 15.318 12.1658 15.318ZM12.1658 13.257C11.1815 13.257 10.3714 12.4469 10.3714 11.4523C10.3714 10.4782 11.1815 9.66812 12.1658 9.66812C13.1297 9.66812 13.9398 10.4782 13.9398 11.4523C13.9398 12.4367 13.1297 13.257 12.1658 13.257Z" fill="#051A15"/>
</svg>
